<svg width="15" height="12" viewBox="0 0 15 12" fill="none" xmlns="http://www.w3.org/2000/svg">
<path fill-rule="evenodd" clip-rule="evenodd" d="M7.25096 11.7009C7.09156 11.8603 6.8754 11.9498 6.65001 11.9498C6.42462 11.9498 6.20846 11.8603 6.04906 11.7009L0.949064 6.60093C0.789713 6.44153 0.700195 6.22537 0.700195 5.99998C0.700195 5.77459 0.789713 5.55843 0.949064 5.39903L6.04906 0.29903C6.20938 0.144195 6.42409 0.0585203 6.64695 0.0604569C6.86982 0.0623936 7.08301 0.151787 7.24061 0.309384C7.39821 0.466981 7.4876 0.680171 7.48954 0.903039C7.49147 1.12591 7.4058 1.34062 7.25096 1.50093L3.60191 5.14998H13.45C13.6754 5.14998 13.8916 5.23953 14.0511 5.39894C14.2105 5.55835 14.3 5.77455 14.3 5.99998C14.3 6.22541 14.2105 6.44161 14.0511 6.60102C13.8916 6.76043 13.6754 6.84998 13.45 6.84998H3.60191L7.25096 10.499C7.41031 10.6584 7.49983 10.8746 7.49983 11.1C7.49983 11.3254 7.41031 11.5415 7.25096 11.7009Z" fill="#1F2A37"/>
</svg>
