<svg width="36" height="36" viewBox="0 0 36 36" fill="none" xmlns="http://www.w3.org/2000/svg">
<rect width="36" height="36" rx="18" fill="#B8B8B8"/>
<path d="M26.9475 18.8937C27.1133 18.8106 27.2528 18.6829 27.3503 18.525C27.4478 18.3671 27.4994 18.1853 27.4994 17.9997C27.4994 17.8142 27.4478 17.6323 27.3503 17.4744C27.2528 17.3165 27.1133 17.1888 26.9475 17.1057L12.9475 10.1057C12.7739 10.0188 12.5788 9.98439 12.3859 10.0065C12.1931 10.0287 12.0109 10.1065 11.8615 10.2304C11.7121 10.3543 11.602 10.5191 11.5446 10.7045C11.4873 10.8899 11.4851 11.0881 11.5385 11.2747L12.9675 16.2747C13.0272 16.4837 13.1535 16.6675 13.327 16.7983C13.5006 16.9291 13.7121 16.9998 13.9295 16.9997H18.5005C18.7657 16.9997 19.02 17.1051 19.2076 17.2926C19.3951 17.4801 19.5005 17.7345 19.5005 17.9997C19.5005 18.2649 19.3951 18.5193 19.2076 18.7068C19.02 18.8943 18.7657 18.9997 18.5005 18.9997H13.9295C13.7121 18.9996 13.5006 19.0703 13.327 19.2011C13.1535 19.3319 13.0272 19.5157 12.9675 19.7247L11.5395 24.7247C11.486 24.9113 11.4881 25.1094 11.5453 25.2948C11.6025 25.4803 11.7124 25.6451 11.8617 25.7691C12.011 25.8931 12.1931 25.9711 12.3859 25.9934C12.5787 26.0157 12.7738 25.9814 12.9475 25.8947L26.9475 18.8947V18.8937Z" fill="white"/>
</svg>
